<?xml version="1.0" encoding="utf-8"?>
<!-- Generator: Adobe Illustrator 19.1.0, SVG Export Plug-In . SVG Version: 6.00 Build 0)  -->
<svg version="1.1" id="Layer_1" xmlns="http://www.w3.org/2000/svg" xmlns:xlink="http://www.w3.org/1999/xlink" x="0px" y="0px"
	 viewBox="90 91 792 612" style="enable-background:new 90 91 792 612;" xml:space="preserve">
<style type="text/css">
	.st0{fill:#231F20;}
	.st1{fill:#FFFFFF;}
</style>
<g>
	<path class="st0" d="M508.1,220.3v78.1H540c21.3,0,27.8,6.7,27.8,25v7.8c0,18.4-6.2,24.8-27.8,24.8h-20.2
		c-21.3,0-27.5-6.7-27.5-24.8v-20.7H433c-3,0-4.4,0.9-4.4,3.9v2.8c0,3.2,1.4,4.1,4.1,4.1H464c14.7,0,18.1,4.4,18.1,16.5v3
		c0,11.5-3.2,15.4-19.5,15.4H411c15.8,26.6,45,44.5,78.3,44.5c50.3,0,91.1-40.9,91.1-91.1C580.4,265.7,549.4,229,508.1,220.3z"/>
	<path class="st0" d="M520.5,342.6h19.1c9.9,0,12.4-2.3,12.4-11.9v-6.9c0-9.9-2.5-11.9-12.4-11.9h-31.4v18.8
		C508.1,340.3,510.6,342.6,520.5,342.6z"/>
	<path class="st0" d="M466.3,338.5v-1.8c0-4.4-1.4-4.8-5.3-4.8h-32.4c-13.1,0-15.6-5.1-15.6-15.2v-4.4c0-9.9,3.7-13.8,16.1-13.8
		h63.1v-79.9c-1.1,0-2.1,0-3.2,0c-50.3,0-91.1,40.9-91.1,91.1c0,12.2,2.3,23.6,6.7,34h55.8C464.9,343.5,466.3,342.4,466.3,338.5z"/>
	<path class="st1" d="M482.1,340.8v-3c0-12.2-3.2-16.5-18.1-16.5h-31.2c-2.8,0-4.1-0.9-4.1-4.1v-2.8c0-3,1.4-3.9,4.4-3.9h59.2v-11.9
		h-63.1c-12.4,0-16.1,3.9-16.1,13.8v4.4c0,10.1,2.5,15.2,15.6,15.2H461c3.9,0,5.3,0.5,5.3,4.8v1.8c0,3.9-1.4,5.1-5.7,5.1h-55.8
		c1.8,4.4,3.9,8.5,6.2,12.4h51.7C478.7,355.9,482.1,352,482.1,340.8z"/>
	<path class="st1" d="M495.2,298.3v11.9h-3v20.7c0,18.4,6.2,24.8,27.5,24.8H540c21.3,0,27.8-6.7,27.8-24.8v-7.6
		c0-18.4-6.2-25-27.8-25h-31.9v-78.1c-5.1-1.1-10.3-1.8-15.8-1.8v79.9H495.2z M508.1,312.1h31.4c9.9,0,12.4,1.8,12.4,11.9v6.9
		c0,9.6-2.5,11.9-12.4,11.9h-19.1c-9.9,0-12.4-2.3-12.4-11.7L508.1,312.1L508.1,312.1z"/>
	<rect x="492.5" y="298.3" class="st1" width="3" height="11.9"/>
</g>
</svg>
